# xmcd CD database file
#
# Track frame offsets:
#	150
#	25013
#	47415
#	68599
#	93339
#	115698
#	147436
#	172076
#	194650
#	214566
#	248506
#	273073
#	287108
#
# Disc length: 4254 seconds
#
# Revision: 0
# Processed by: cddbd v1.5.1PL2 Copyright (c) Steve Scherf et al.
# Submitted via: CDex 1.50
#
DISCID=b2109c0d
DTITLE=Various Artist - Bar SuSu 
DYEAR=1900
DGENRE=Soulful House
TTITLE0=Mr A.L.I. featuring Carla Prather - That Feeling
TTITLE1=James Ratcliff presents Urban Groove ft Tommy Blaize - Takin' U Back
TTITLE2=Notenshun featuring Sandy Mills - Lyrical Flight
TTITLE3=Jody Wately - Photographs (East West Connection Remix)
TTITLE4=Kim English - C'est La Vie (Jon Cutler Distant Music Remix)
TTITLE5=Notenshun - Unfinished Business (Remix)
TTITLE6=Kevin Saunderson presents The Reese Prjoct ft Paul Randolph - This Means That (Full Vox Remix)
TTITLE7=Anderson Soares Project, The - Sentido Littoral
TTITLE8=Awakening - Take Me Now (Bah Samba Remix)
TTITLE9=Nathan Haines - U See That  (Notenshun Re-Work)
TTITLE10=Notenshun - Amarante (Phil Asher Restless Soul Remix)
TTITLE11=280 West Featuring Diamond Temple - I Never Knew
TTITLE12=Notenshun featuring Sandy Mills - Soul Music (Danism Remix)
EXTD=
EXTT0=
EXTT1=
EXTT2=
EXTT3=
EXTT4=
EXTT5=
EXTT6=
EXTT7=
EXTT8=
EXTT9=
EXTT10=
EXTT11=
EXTT12=
PLAYORDER=
